<svg xmlns="http://www.w3.org/2000/svg" xmlns:xlink="http://www.w3.org/1999/xlink">
  <symbol viewBox="0 0 32 32" id="list--bulleted"><circle cx="7" cy="9" r="3"/><circle cx="7" cy="23" r="3"/><path d="M16 22H30V24H16z"/><path d="M16 8H30V10H16z"/></symbol>
  <symbol viewBox="0 0 32 32" id="list--numbered"><path d="M16 22H30V24H16z"/><path d="M16 8H30V10H16z"/><path d="M8 12 8 4 6 4 6 5 4 5 4 7 6 7 6 12 4 12 4 14 6 14 8 14 10 14 10 12 8 12z"/><path d="M10,28H4V24a2,2,0,0,1,2-2H8V20H4V18H8a2,2,0,0,1,2,2v2a2,2,0,0,1-2,2H6v2h4Z"/></symbol>
  <symbol viewBox="0 0 32 32" id="chevron--right"><path d="M22 16 12 26 10.6 24.6 19.2 16 10.6 7.4 12 6z"/></symbol>
  <symbol viewBox="0 0 32 32" id="chevron--down"><path d="M16 22 6 12 7.4 10.6 16 19.2 24.6 10.6 26 12z"/></symbol>
  <symbol viewBox="0 0 32 32" id="chevron--left"><path d="M10 16 20 6 21.4 7.4 12.8 16 21.4 24.6 20 26z"/></symbol>
  <symbol viewBox="0 0 32 32" id="chevron--up"><path d="M16 10 26 20 24.6 21.4 16 12.8 7.4 21.4 6 20z"/></symbol>
  <symbol viewBox="0 0 32 32" id="home"><path d="M16.6123,2.2138a1.01,1.01,0,0,0-1.2427,0L1,13.4194l1.2427,1.5717L4,13.6209V26a2.0041,2.0041,0,0,0,2,2H26a2.0037,2.0037,0,0,0,2-2V13.63L29.7573,15,31,13.4282ZM18,26H14V18h4Zm2,0V18a2.0023,2.0023,0,0,0-2-2H14a2.002,2.002,0,0,0-2,2v8H6V12.0615l10-7.79,10,7.8005V26Z"/></symbol>
  <symbol viewBox="0 0 32 32" id="ibm--webmethods-integration-server"><path d="M13,28c0,1.6543,1.3457,3,3,3s3-1.3457,3-3c0-1.3019-.8385-2.4016-2-2.8157v-3.1843h-2v3.1843c-1.1615.4141-2,1.5138-2,2.8157ZM16,27c.5518,0,1,.4487,1,1s-.4482,1-1,1-1-.4487-1-1,.4482-1,1-1ZM15,6.8157v3.1843h2v-3.1843c1.1615-.4141,2-1.5137,2-2.8157,0-1.6543-1.3457-3-3-3s-3,1.3457-3,3c0,1.3019.8385,2.4016,2,2.8157ZM15,4c0-.5513.4482-1,1-1s1,.4487,1,1-.4482,1-1,1-1-.4487-1-1ZM26,19c-.7233,0-1.3787.2676-1.8972.6954l-2.6271-1.5762-1.0001,1.7324,2.5847,1.5509c-.0391.1932-.0603.3929-.0603.5975,0,1.6543,1.3457,3,3,3s3-1.3457,3-3-1.3457-3-3-3ZM26,23c-.5518,0-1-.4487-1-1s.4482-1,1-1,1,.4487,1,1-.4482,1-1,1ZM26,7c-1.6543,0-3,1.3457-3,3,0,.2046.0212.4043.0603.5975l-2.5364,1.5219,1.0002,1.7323,2.5786-1.5471c.5186.4278,1.174.6954,1.8972.6954,1.6543,0,3-1.3457,3-3s-1.3457-3-3-3ZM26,11c-.5518,0-1-.4487-1-1s.4482-1,1-1,1,.4487,1,1-.4482,1-1,1ZM11.4762,12.1195l-2.5365-1.522c.0391-.1932.0603-.3929.0603-.5975,0-1.6543-1.3457-3-3-3s-3,1.3457-3,3,1.3457,3,3,3c.7233,0,1.3787-.2676,1.8972-.6954l2.5789,1.5473,1.0001-1.7324ZM6,11c-.5518,0-1-.4487-1-1s.4482-1,1-1,1,.4487,1,1-.4482,1-1,1ZM11.4641,19.8878l-1.0001-1.7324-2.5668,1.54c-.5186-.4278-1.174-.6954-1.8972-.6954-1.6543,0-3,1.3457-3,3s1.3457,3,3,3,3-1.3457,3-3c0-.2046-.0212-.4043-.0603-.5975l2.5244-1.5147ZM6,23c-.5518,0-1-.4487-1-1s.4482-1,1-1,1,.4487,1,1-.4482,1-1,1ZM16,20c-2.2061,0-4-1.7939-4-4s1.7939-4,4-4,4,1.7944,4,4-1.7939,4-4,4ZM16,14c-1.1025,0-2,.897-2,2s.8975,2,2,2,2-.8975,2-2-.8975-2-2-2Z"/></symbol>
  <symbol viewBox="0 0 32 32" id="ibm--webmethods-api-studio"><path d="M27,13c-1.3019,0-2.4016.8385-2.8157,2h-2.1843v2h2.1843c.4141,1.1615,1.5137,2,2.8157,2,1.6543,0,3-1.3457,3-3s-1.3457-3-3-3ZM27,17c-.5518,0-1-.4482-1-1s.4482-1,1-1,1,.4482,1,1-.4482,1-1,1ZM25,22c-.4617,0-.8943.1135-1.2854.3005l-2.7488-2.7488-1.4141,1.4141,2.7488,2.7488c-.187.3911-.3005.8237-.3005,1.2854,0,1.6543,1.3457,3,3,3s3-1.3457,3-3-1.3457-3-3-3ZM25,26c-.5518,0-1-.4482-1-1s.4482-1,1-1,1,.4482,1,1-.4482,1-1,1ZM25,4c-1.6543,0-3,1.3457-3,3,0,.4617.1135.8943.3005,1.2854l-2.984,2.984,1.4141,1.4141,2.984-2.984c.3911.187.8237.3005,1.2854.3005,1.6543,0,3-1.3457,3-3s-1.3457-3-3-3ZM25,8c-.5518,0-1-.4482-1-1s.4482-1,1-1,1,.4482,1,1-.4482,1-1,1ZM16,30c-7.7197,0-14-6.2803-14-14S8.2803,2,16,2c1.8652,0,3.6768.3613,5.3848,1.0732l-.7695,1.8457c-1.4629-.6094-3.0156-.9189-4.6152-.9189-6.6172,0-12,5.3828-12,12s5.3828,12,12,12c1.5996,0,3.1523-.3096,4.6152-.9189l.7695,1.8457c-1.708.7119-3.5195,1.0732-5.3848,1.0732ZM16,20c-2.2061,0-4-1.7939-4-4s1.7939-4,4-4,4,1.7939,4,4-1.7939,4-4,4ZM16,14c-1.1025,0-2,.8975-2,2s.8975,2,2,2,2-.8975,2-2-.8975-2-2-2Z"/></symbol>
  <symbol viewBox="0 0 32 32" id="playlist"><path d="M4 6H22V8H4z"/><path d="M4 12H22V14H4z"/><path d="M4 18H16V20H4z"/><path d="M21 18 28 23 21 28 21 18z"/></symbol>
  <symbol viewBox="0 0 32 32" id="bookmark"><path d="M24,4V26.75l-7.1-3.59-.9-.45-.9.45L8,26.75V4H24m0-2H8A2,2,0,0,0,6,4V30L16,25,26,30V4A2,2,0,0,0,24,2Z"/></symbol>
  <symbol viewBox="0 0 32 32" id="overflow-menu--vertical"><circle cx="16" cy="8" r="2"/><circle cx="16" cy="16" r="2"/><circle cx="16" cy="24" r="2"/></symbol>
  <symbol viewBox="0 0 32 32" id="arrow--left"><path d="M14 26 15.41 24.59 7.83 17 28 17 28 15 7.83 15 15.41 7.41 14 6 4 16 14 26z"/></symbol>
  <symbol viewBox="0 0 32 32" id="arrow--right"><path d="M18 6 16.57 7.393 24.15 15 4 15 4 17 24.15 17 16.57 24.573 18 26 28 16 18 6z"/></symbol>
  <symbol viewBox="0 0 32 32" id="maximize"><path d="M20 2 20 4 26.586 4 18 12.582 19.414 14 28 5.414 28 12 30 12 30 2 20 2z"/><path d="M14 19.416 12.592 18 4 26.586 4 20 2 20 2 30 12 30 12 28 5.414 28 14 19.416z"/></symbol>
  <symbol viewBox="0 0 32 32" id="choose-item"><path d="M28 6H30V26H28z"/><path d="M17 6 15.57 7.393 23.15 15 2 15 2 17 23.15 17 15.57 24.573 17 26 27 16 17 6z"/></symbol>
  <symbol viewBox="0 0 32 32" id="caret--right"><path d="M12 8 22 16 12 24z"/></symbol>
  <symbol viewBox="0 0 32 32" id="arrange"><path d="M30,29H2v-2h28v2ZM27,19H5v2h22v-2ZM24,11H8v2h16v-2ZM21,3h-10v2h10v-2Z"/></symbol>
  <symbol viewBox="0 0 32 32" id="arrow--up-right"><path d="M10 6 10 8 22.59 8 6 24.59 7.41 26 24 9.41 24 22 26 22 26 6 10 6z"/></symbol>
  <symbol viewBox="0 0 32 32" id="autoscaling"><path d="M22,28H12V26H22V10H6V20H4V10A2.0021,2.0021,0,0,1,6,8H22a2.0021,2.0021,0,0,1,2,2V26A2.0021,2.0021,0,0,1,22,28Z"/><path d="M28,22H26V20h2V4H12V6H10V4a2.0021,2.0021,0,0,1,2-2H28a2.0021,2.0021,0,0,1,2,2V20A2.0021,2.0021,0,0,1,28,22Z"/><path d="M10 14 10 16 14.586 16 3 27.586 4.414 29 16 17.414 16 22 18 22 18 14 10 14z"/></symbol>
  <symbol viewBox="0 0 32 32" id="printer"><path d="M28,9H25V3H7V9H4a2,2,0,0,0-2,2V21a2,2,0,0,0,2,2H7v6H25V23h3a2,2,0,0,0,2-2V11A2,2,0,0,0,28,9ZM9,5H23V9H9ZM23,27H9V17H23Zm5-6H25V15H7v6H4V11H28Z"/></symbol>
  <symbol viewBox="0 0 32 32" id="document"><path d="M25.7,9.3l-7-7C18.5,2.1,18.3,2,18,2H8C6.9,2,6,2.9,6,4v24c0,1.1,0.9,2,2,2h16c1.1,0,2-0.9,2-2V10C26,9.7,25.9,9.5,25.7,9.3	z M18,4.4l5.6,5.6H18V4.4z M24,28H8V4h8v6c0,1.1,0.9,2,2,2h6V28z"/><path d="M10 22H22V24H10z"/><path d="M10 16H22V18H10z"/></symbol>
  <symbol viewBox="0 0 32 32" id="presentation-file"><path d="M15 10H17V18H15z"/><path d="M20 14H22V18H20z"/><path d="M10 12H12V18H10z"/><path d="M25,4H17V2H15V4H7A2,2,0,0,0,5,6V20a2,2,0,0,0,2,2h8v6H11v2H21V28H17V22h8a2,2,0,0,0,2-2V6A2,2,0,0,0,25,4Zm0,16H7V6H25Z"/></symbol>
  <symbol viewBox="0 0 32 32" id="user--speaker"><path d="M29.4146,19,27.7,17.2852A2.97,2.97,0,0,0,28,16a3,3,0,1,0-3,3,2.97,2.97,0,0,0,1.2864-.3L28,20.4141V28H22V25a7.0078,7.0078,0,0,0-7-7H9a7.008,7.008,0,0,0-7,7v5H30V20.4141A1.988,1.988,0,0,0,29.4146,19ZM4,25a5.006,5.006,0,0,1,5-5h6a5.0059,5.0059,0,0,1,5,5v3H4Z"/><path d="M12,4A5,5,0,1,1,7,9a5,5,0,0,1,5-5m0-2a7,7,0,1,0,7,7A7,7,0,0,0,12,2Z"/></symbol>
  <symbol viewBox="0 0 32 32" id="screen"><path d="M28,4H4A2,2,0,0,0,2,6V22a2,2,0,0,0,2,2h8v4H8v2H24V28H20V24h8a2,2,0,0,0,2-2V6A2,2,0,0,0,28,4ZM18,28H14V24h4Zm10-6H4V6H28Z"/></symbol>
  <symbol viewBox="0 0 32 32" id="row"><path d="M4 24H28V26H4z"/><path d="M26,18H6V14H26v4m2,0V14a2,2,0,0,0-2-2H6a2,2,0,0,0-2,2v4a2,2,0,0,0,2,2H26a2,2,0,0,0,2-2Z"/><path d="M4 6H28V8H4z"/></symbol>
  <symbol viewBox="0 0 32 32" id="favorite"><path d="M22.45,6a5.47,5.47,0,0,1,3.91,1.64,5.7,5.7,0,0,1,0,8L16,26.13,5.64,15.64a5.7,5.7,0,0,1,0-8,5.48,5.48,0,0,1,7.82,0L16,10.24l2.53-2.58A5.44,5.44,0,0,1,22.45,6m0-2a7.47,7.47,0,0,0-5.34,2.24L16,7.36,14.89,6.24a7.49,7.49,0,0,0-10.68,0,7.72,7.72,0,0,0,0,10.82L16,29,27.79,17.06a7.72,7.72,0,0,0,0-10.82A7.49,7.49,0,0,0,22.45,4Z"/></symbol>
  <symbol viewBox="0 0 32 32" id="star"><path d="M16,6.52l2.76,5.58.46,1,1,.15,6.16.89L22,18.44l-.75.73.18,1,1.05,6.13-5.51-2.89L16,23l-.93.49L9.56,26.34l1-6.13.18-1L10,18.44,5.58,14.09l6.16-.89,1-.15.46-1L16,6.52M16,2l-4.55,9.22L1.28,12.69l7.36,7.18L6.9,30,16,25.22,25.1,30,23.36,19.87l7.36-7.17L20.55,11.22Z"/></symbol>
  <symbol viewBox="0 0 32 32" id="search"><path d="M29 27.586l-7.552-7.552a11.018 11.018 0 1 0-1.414 1.414L27.586 29zM14 23a9 9 0 1 1 9-9 9.01 9.01 0 0 1-9 9z"/></symbol>
</svg>
